<mxfile host="app.diagrams.net" modified="2021-12-30T02:03:22.866Z" agent="5.0 (Windows NT 10.0; Win64; x64) AppleWebKit/537.36 (KHTML, like Gecko) Chrome/96.0.4664.93 Safari/537.36" etag="iO8JDcuHgmpxekrdtWUL" version="16.1.0" type="github">
  <diagram id="rcf7ry1NldlSQ8hg1qc1" name="Page-1">
    <mxGraphModel dx="3671" dy="1412" grid="1" gridSize="10" guides="1" tooltips="1" connect="1" arrows="1" fold="1" page="1" pageScale="1" pageWidth="827" pageHeight="1169" math="0" shadow="0">
      <root>
        <mxCell id="0" />
        <mxCell id="1" parent="0" />
        <mxCell id="jHWOf3l9fT7PaR0WTo1j-5" value="&lt;span style=&quot;color: rgb(0 , 0 , 0) ; font-family: &amp;#34;helvetica&amp;#34; ; font-style: normal ; font-weight: 400 ; letter-spacing: normal ; text-indent: 0px ; text-transform: none ; word-spacing: 0px ; background-color: rgb(248 , 249 , 250) ; display: inline ; float: none&quot;&gt;&lt;font style=&quot;font-size: 11px&quot;&gt;Policy Decision Point&lt;/font&gt;&lt;/span&gt;" style="text;whiteSpace=wrap;html=1;fontSize=10;align=center;" vertex="1" parent="1">
          <mxGeometry x="330" y="360" width="130" height="30" as="geometry" />
        </mxCell>
        <mxCell id="jHWOf3l9fT7PaR0WTo1j-10" value="&lt;span style=&quot;color: rgb(0 , 0 , 0) ; font-family: &amp;#34;helvetica&amp;#34; ; font-style: normal ; font-weight: 400 ; letter-spacing: normal ; text-indent: 0px ; text-transform: none ; word-spacing: 0px ; background-color: rgb(248 , 249 , 250) ; display: inline ; float: none&quot;&gt;&lt;font style=&quot;font-size: 11px&quot;&gt;Policy Enforcement Point&lt;/font&gt;&lt;/span&gt;" style="text;whiteSpace=wrap;html=1;fontSize=10;align=center;" vertex="1" parent="1">
          <mxGeometry x="10" y="400" width="150" height="30" as="geometry" />
        </mxCell>
        <mxCell id="jHWOf3l9fT7PaR0WTo1j-8" value="&lt;font style=&quot;font-size: 18px&quot;&gt;PEP&lt;/font&gt;" style="ellipse;whiteSpace=wrap;html=1;aspect=fixed;" vertex="1" parent="1">
          <mxGeometry x="60" y="350" width="50" height="50" as="geometry" />
        </mxCell>
        <mxCell id="jHWOf3l9fT7PaR0WTo1j-1" value="&lt;font style=&quot;font-size: 18px&quot;&gt;PDP&lt;/font&gt;" style="ellipse;whiteSpace=wrap;html=1;aspect=fixed;" vertex="1" parent="1">
          <mxGeometry x="280" y="350" width="50" height="50" as="geometry" />
        </mxCell>
        <mxCell id="jHWOf3l9fT7PaR0WTo1j-13" value="" style="endArrow=classic;html=1;rounded=0;fontSize=11;exitX=0.937;exitY=0.268;exitDx=0;exitDy=0;exitPerimeter=0;entryX=0.063;entryY=0.272;entryDx=0;entryDy=0;entryPerimeter=0;" edge="1" parent="1" source="jHWOf3l9fT7PaR0WTo1j-8" target="jHWOf3l9fT7PaR0WTo1j-1">
          <mxGeometry width="50" height="50" relative="1" as="geometry">
            <mxPoint x="130" y="350" as="sourcePoint" />
            <mxPoint x="260" y="353" as="targetPoint" />
          </mxGeometry>
        </mxCell>
        <mxCell id="jHWOf3l9fT7PaR0WTo1j-14" value="&lt;font style=&quot;font-size: 11px&quot;&gt;1. XACML Request&lt;/font&gt;" style="text;html=1;strokeColor=none;fillColor=none;align=center;verticalAlign=middle;whiteSpace=wrap;rounded=0;fontSize=18;" vertex="1" parent="1">
          <mxGeometry x="130" y="340" width="120" height="20" as="geometry" />
        </mxCell>
        <mxCell id="jHWOf3l9fT7PaR0WTo1j-15" value="&lt;font style=&quot;font-size: 18px&quot;&gt;PIP&lt;/font&gt;" style="ellipse;whiteSpace=wrap;html=1;aspect=fixed;" vertex="1" parent="1">
          <mxGeometry x="480" y="220" width="50" height="50" as="geometry" />
        </mxCell>
        <mxCell id="jHWOf3l9fT7PaR0WTo1j-16" value="&lt;font style=&quot;font-size: 18px&quot;&gt;PAP&lt;/font&gt;" style="ellipse;whiteSpace=wrap;html=1;aspect=fixed;" vertex="1" parent="1">
          <mxGeometry x="480" y="460" width="50" height="50" as="geometry" />
        </mxCell>
        <mxCell id="jHWOf3l9fT7PaR0WTo1j-17" value="" style="shape=cylinder3;whiteSpace=wrap;html=1;boundedLbl=1;backgroundOutline=1;size=15;fontSize=11;" vertex="1" parent="1">
          <mxGeometry x="290" y="470" width="40" height="60" as="geometry" />
        </mxCell>
        <mxCell id="jHWOf3l9fT7PaR0WTo1j-18" value="" style="shape=cylinder3;whiteSpace=wrap;html=1;boundedLbl=1;backgroundOutline=1;size=15;fontSize=11;" vertex="1" parent="1">
          <mxGeometry x="700" y="210" width="40" height="60" as="geometry" />
        </mxCell>
        <mxCell id="jHWOf3l9fT7PaR0WTo1j-19" value="Actor" style="shape=umlActor;verticalLabelPosition=bottom;verticalAlign=top;html=1;outlineConnect=0;fontSize=11;" vertex="1" parent="1">
          <mxGeometry x="-330" y="350" width="30" height="60" as="geometry" />
        </mxCell>
        <mxCell id="jHWOf3l9fT7PaR0WTo1j-20" value="&lt;font style=&quot;font-size: 18px&quot;&gt;PEP&lt;/font&gt;" style="ellipse;whiteSpace=wrap;html=1;aspect=fixed;" vertex="1" parent="1">
          <mxGeometry x="-180" y="350" width="50" height="50" as="geometry" />
        </mxCell>
        <mxCell id="jHWOf3l9fT7PaR0WTo1j-21" value="Actor" style="shape=umlActor;verticalLabelPosition=bottom;verticalAlign=top;html=1;outlineConnect=0;fontSize=11;" vertex="1" parent="1">
          <mxGeometry x="700" y="460" width="30" height="60" as="geometry" />
        </mxCell>
      </root>
    </mxGraphModel>
  </diagram>
</mxfile>
